<svg xmlns="http://www.w3.org/2000/svg" xmlns:xlink="http://www.w3.org/1999/xlink" width="8000" zoomAndPan="magnify" viewBox="0 0 6000 1499.999933" height="2000" preserveAspectRatio="xMidYMid meet" version="1.0"><defs><g/></defs><rect x="-600" width="7200" fill="#ffffff" y="-149.999993" height="1799.99992" fill-opacity="1"/><rect x="-600" width="7200" fill="#ffffff" y="-149.999993" height="1799.99992" fill-opacity="1"/><rect x="-600" width="7200" fill="#0e0e0e" y="-149.999993" height="1799.99992" fill-opacity="1"/><g fill="#ffffff" fill-opacity="1"><g transform="translate(1845.458794, 518.682486)"><g><path d="M 17.640625 0 C 14.609375 0 12.421875 -0.585938 11.078125 -1.765625 C 9.734375 -2.941406 9.0625 -5.039062 9.0625 -8.0625 C 9.0625 -9.40625 9.398438 -12.425781 10.078125 -17.125 L 58.953125 -365.3125 C 59.285156 -369.34375 60.039062 -371.773438 61.21875 -372.609375 C 62.394531 -373.453125 64.832031 -373.875 68.53125 -373.875 L 209.609375 -373.875 C 217.003906 -373.875 221.539062 -370.007812 223.21875 -362.28125 L 253.453125 -203.0625 C 253.453125 -201.039062 254.125 -200.03125 255.46875 -200.03125 C 256.46875 -200.03125 257.472656 -201.039062 258.484375 -203.0625 L 329.53125 -361.78125 C 331.207031 -366.488281 333.050781 -369.679688 335.0625 -371.359375 C 337.082031 -373.035156 339.773438 -373.875 343.140625 -373.875 L 492.28125 -373.875 C 497.65625 -373.875 499.84375 -371.1875 498.84375 -365.8125 L 448.953125 -11.59375 C 448.273438 -6.550781 447.015625 -3.359375 445.171875 -2.015625 C 443.328125 -0.671875 439.378906 0 433.328125 0 L 348.171875 0 C 343.472656 0 340.03125 -0.753906 337.84375 -2.265625 C 335.664062 -3.773438 334.578125 -6.546875 334.578125 -10.578125 C 334.578125 -12.597656 334.742188 -14.28125 335.078125 -15.625 L 366.3125 -236.828125 L 366.3125 -238.84375 C 366.3125 -240.1875 365.976562 -240.859375 365.3125 -240.859375 C 363.96875 -240.859375 362.625 -239.175781 361.28125 -235.8125 L 255.96875 -6.546875 C 254.625 -3.859375 253.113281 -2.09375 251.4375 -1.25 C 249.757812 -0.414062 247.40625 0 244.375 0 L 191.46875 0 C 188.113281 0 185.59375 -0.753906 183.90625 -2.265625 C 182.226562 -3.773438 180.890625 -6.882812 179.890625 -11.59375 L 139.0625 -234.296875 C 138.0625 -237.992188 136.71875 -239.84375 135.03125 -239.84375 C 133.6875 -239.84375 132.679688 -238.332031 132.015625 -235.3125 L 99.765625 -8.0625 C 99.429688 -4.695312 98.507812 -2.507812 97 -1.5 C 95.488281 -0.5 93.050781 0 89.6875 0 Z M 17.640625 0 "/></g></g></g><g fill="#ffffff" fill-opacity="1"><g transform="translate(2327.611362, 518.682486)"><g><path d="M 58.953125 -365.3125 C 59.285156 -369.007812 60.039062 -371.359375 61.21875 -372.359375 C 62.394531 -373.367188 64.492188 -373.875 67.515625 -373.875 L 341.625 -373.875 C 346.664062 -373.875 349.1875 -370.851562 349.1875 -364.8125 C 349.1875 -362.789062 349.019531 -361.273438 348.6875 -360.265625 L 340.109375 -301.828125 C 339.441406 -297.796875 338.265625 -295.019531 336.578125 -293.5 C 334.898438 -291.988281 331.878906 -291.234375 327.515625 -291.234375 L 171.3125 -291.234375 C 168.289062 -291.234375 166.023438 -290.644531 164.515625 -289.46875 C 163.003906 -288.300781 162.082031 -285.867188 161.75 -282.171875 L 155.1875 -235.8125 L 154.6875 -232.28125 C 154.6875 -230.601562 155.101562 -229.507812 155.9375 -229 C 156.78125 -228.5 158.378906 -228.25 160.734375 -228.25 L 255.96875 -228.25 C 259.320312 -228.25 261.503906 -227.578125 262.515625 -226.234375 C 263.523438 -224.890625 263.691406 -222.707031 263.015625 -219.6875 L 253.953125 -153.6875 C 253.617188 -151 252.945312 -149.234375 251.9375 -148.390625 C 250.925781 -147.546875 248.910156 -147.125 245.890625 -147.125 L 148.640625 -147.125 C 146.285156 -147.125 144.601562 -146.535156 143.59375 -145.359375 C 142.59375 -144.191406 141.753906 -142.09375 141.078125 -139.0625 L 134.03125 -89.1875 L 134.03125 -86.671875 C 134.03125 -83.984375 135.207031 -82.640625 137.5625 -82.640625 L 305.34375 -82.640625 C 308.707031 -82.640625 310.890625 -81.96875 311.890625 -80.625 C 312.898438 -79.28125 313.070312 -76.757812 312.40625 -73.0625 L 303.84375 -8.0625 C 303.164062 -5.039062 302.15625 -2.941406 300.8125 -1.765625 C 299.46875 -0.585938 296.78125 0 292.75 0 L 21.671875 0 C 17.296875 0 14.097656 -0.921875 12.078125 -2.765625 C 10.066406 -4.617188 9.0625 -7.390625 9.0625 -11.078125 L 9.578125 -15.625 Z M 286.1875 -435.859375 C 286.53125 -434.515625 286.703125 -432.832031 286.703125 -430.8125 C 286.703125 -428.46875 286.03125 -426.625 284.6875 -425.28125 C 283.34375 -423.9375 280.820312 -422.757812 277.125 -421.75 L 155.6875 -393.53125 C 154.675781 -393.195312 153.332031 -393.03125 151.65625 -393.03125 C 146.28125 -393.03125 142.753906 -396.390625 141.078125 -403.109375 L 136.546875 -424.765625 C 135.867188 -428.128906 135.53125 -429.976562 135.53125 -430.3125 C 135.53125 -432.664062 136.707031 -434.347656 139.0625 -435.359375 L 266.546875 -486.25 C 266.878906 -486.582031 267.550781 -486.75 268.5625 -486.75 C 270.238281 -486.75 271.832031 -485.738281 273.34375 -483.71875 C 274.851562 -481.707031 275.945312 -479.359375 276.625 -476.671875 Z M 286.1875 -435.859375 "/></g></g></g><g fill="#ffffff" fill-opacity="1"><g transform="translate(2655.595421, 518.682486)"><g><path d="M 46.859375 -365.3125 C 47.535156 -368.664062 48.628906 -370.929688 50.140625 -372.109375 C 51.648438 -373.285156 54.421875 -373.875 58.453125 -373.875 L 364.8125 -373.875 C 368.84375 -373.875 371.359375 -373.285156 372.359375 -372.109375 C 373.367188 -370.929688 373.539062 -368.664062 372.875 -365.3125 L 363.796875 -299.296875 C 363.460938 -296.609375 362.539062 -294.84375 361.03125 -294 C 359.519531 -293.164062 357.082031 -292.75 353.71875 -292.75 L 264.53125 -292.75 C 261.175781 -292.75 258.992188 -292.242188 257.984375 -291.234375 C 256.972656 -290.234375 256.132812 -288.050781 255.46875 -284.6875 L 216.671875 -9.578125 C 216.328125 -5.878906 215.398438 -3.359375 213.890625 -2.015625 C 212.378906 -0.671875 210.113281 0 207.09375 0 L 112.359375 0 C 105.640625 0 102.28125 -2.6875 102.28125 -8.0625 C 102.28125 -10.070312 102.453125 -11.75 102.796875 -13.09375 L 141.59375 -286.703125 L 141.59375 -288.21875 C 141.59375 -291.238281 139.910156 -292.75 136.546875 -292.75 L 46.359375 -292.75 C 42.660156 -292.75 40.222656 -293.335938 39.046875 -294.515625 C 37.867188 -295.691406 37.453125 -297.789062 37.796875 -300.8125 Z M 46.859375 -365.3125 "/></g></g></g><g fill="#ffffff" fill-opacity="1"><g transform="translate(3000.205578, 518.682486)"><g><path d="M 181.390625 5.03125 C 148.140625 5.03125 119.503906 -1.429688 95.484375 -14.359375 C 71.460938 -27.296875 53.066406 -45.6875 40.296875 -69.53125 C 27.535156 -93.382812 21.15625 -121.601562 21.15625 -154.1875 C 21.15625 -168.289062 22 -180.71875 23.6875 -191.46875 C 29.0625 -229.09375 40.984375 -262.097656 59.453125 -290.484375 C 77.929688 -318.867188 101.613281 -340.703125 130.5 -355.984375 C 159.394531 -371.265625 191.644531 -378.90625 227.25 -378.90625 C 259.832031 -378.90625 288.128906 -372.269531 312.140625 -359 C 336.160156 -345.738281 354.550781 -326.929688 367.3125 -302.578125 C 380.082031 -278.222656 386.46875 -249.753906 386.46875 -217.171875 C 386.46875 -203.054688 385.628906 -190.796875 383.953125 -180.390625 C 378.578125 -142.765625 366.734375 -110.007812 348.421875 -82.125 C 330.117188 -54.25 306.609375 -32.753906 277.890625 -17.640625 C 249.171875 -2.523438 217.003906 5.03125 181.390625 5.03125 Z M 184.421875 -73.5625 C 207.265625 -73.5625 225.066406 -82.628906 237.828125 -100.765625 C 250.585938 -118.910156 259.828125 -148.640625 265.546875 -189.953125 C 268.234375 -210.453125 269.578125 -227.082031 269.578125 -239.84375 C 269.578125 -261.675781 266.046875 -277.378906 258.984375 -286.953125 C 251.929688 -296.523438 240.515625 -301.3125 224.734375 -301.3125 C 201.890625 -301.3125 183.914062 -291.65625 170.8125 -272.34375 C 157.707031 -253.03125 148.132812 -221.875 142.09375 -178.875 C 139.40625 -159.050781 138.0625 -143.09375 138.0625 -131 C 138.0625 -110.175781 141.671875 -95.394531 148.890625 -86.65625 C 156.117188 -77.925781 167.960938 -73.5625 184.421875 -73.5625 Z M 184.421875 -73.5625 "/></g></g></g><g fill="#ffffff" fill-opacity="1"><g transform="translate(3383.105899, 518.682486)"><g><path d="M 24.1875 0 C 19.144531 0 15.363281 -1.675781 12.84375 -5.03125 C 10.320312 -8.394531 9.398438 -12.765625 10.078125 -18.140625 L 58.453125 -364.296875 C 58.785156 -368.328125 59.789062 -370.929688 61.46875 -372.109375 C 63.144531 -373.285156 66.335938 -373.875 71.046875 -373.875 L 197.015625 -373.875 C 236.316406 -373.875 269.90625 -367.15625 297.78125 -353.71875 C 325.664062 -340.28125 346.742188 -321.632812 361.015625 -297.78125 C 375.296875 -273.9375 382.4375 -246.726562 382.4375 -216.15625 C 382.4375 -173.5 373.03125 -135.796875 354.21875 -103.046875 C 335.40625 -70.296875 308.953125 -44.929688 274.859375 -26.953125 C 240.765625 -8.984375 201.378906 0 156.703125 0 Z M 170.3125 -79.109375 C 200.875 -79.109375 224.050781 -92.546875 239.84375 -119.421875 C 255.632812 -146.296875 263.53125 -180.726562 263.53125 -222.71875 C 263.53125 -245.894531 258.070312 -263.695312 247.15625 -276.125 C 236.238281 -288.550781 221.203125 -294.765625 202.046875 -294.765625 L 172.328125 -294.765625 C 166.273438 -294.765625 162.75 -291.40625 161.75 -284.6875 L 135.03125 -88.6875 L 135.03125 -85.65625 C 135.03125 -81.289062 137.21875 -79.109375 141.59375 -79.109375 Z M 170.3125 -79.109375 "/></g></g></g><g fill="#ffffff" fill-opacity="1"><g transform="translate(3761.471815, 518.682486)"><g><path d="M 181.390625 5.03125 C 148.140625 5.03125 119.503906 -1.429688 95.484375 -14.359375 C 71.460938 -27.296875 53.066406 -45.6875 40.296875 -69.53125 C 27.535156 -93.382812 21.15625 -121.601562 21.15625 -154.1875 C 21.15625 -168.289062 22 -180.71875 23.6875 -191.46875 C 29.0625 -229.09375 40.984375 -262.097656 59.453125 -290.484375 C 77.929688 -318.867188 101.613281 -340.703125 130.5 -355.984375 C 159.394531 -371.265625 191.644531 -378.90625 227.25 -378.90625 C 259.832031 -378.90625 288.128906 -372.269531 312.140625 -359 C 336.160156 -345.738281 354.550781 -326.929688 367.3125 -302.578125 C 380.082031 -278.222656 386.46875 -249.753906 386.46875 -217.171875 C 386.46875 -203.054688 385.628906 -190.796875 383.953125 -180.390625 C 378.578125 -142.765625 366.734375 -110.007812 348.421875 -82.125 C 330.117188 -54.25 306.609375 -32.753906 277.890625 -17.640625 C 249.171875 -2.523438 217.003906 5.03125 181.390625 5.03125 Z M 184.421875 -73.5625 C 207.265625 -73.5625 225.066406 -82.628906 237.828125 -100.765625 C 250.585938 -118.910156 259.828125 -148.640625 265.546875 -189.953125 C 268.234375 -210.453125 269.578125 -227.082031 269.578125 -239.84375 C 269.578125 -261.675781 266.046875 -277.378906 258.984375 -286.953125 C 251.929688 -296.523438 240.515625 -301.3125 224.734375 -301.3125 C 201.890625 -301.3125 183.914062 -291.65625 170.8125 -272.34375 C 157.707031 -253.03125 148.132812 -221.875 142.09375 -178.875 C 139.40625 -159.050781 138.0625 -143.09375 138.0625 -131 C 138.0625 -110.175781 141.671875 -95.394531 148.890625 -86.65625 C 156.117188 -77.925781 167.960938 -73.5625 184.421875 -73.5625 Z M 184.421875 -73.5625 "/></g></g></g><g fill="#22e18a" fill-opacity="1"><g transform="translate(96.295595, 1283.495219)"><g><path d="M 442.78125 -17.921875 C 443.664062 -15.710938 444.109375 -13.054688 444.109375 -9.953125 C 444.109375 -3.316406 439.90625 0 431.5 0 L 302.71875 0 C 297.84375 0 294.078125 -1.210938 291.421875 -3.640625 C 288.765625 -6.078125 286.773438 -10.617188 285.453125 -17.265625 L 246.953125 -188.53125 C 246.066406 -191.1875 245.066406 -193.066406 243.953125 -194.171875 C 242.847656 -195.273438 240.523438 -195.828125 236.984375 -195.828125 L 197.15625 -195.828125 C 193.613281 -195.828125 191.179688 -195.160156 189.859375 -193.828125 C 188.535156 -192.503906 187.648438 -190.519531 187.203125 -187.875 L 162.640625 -15.265625 C 161.753906 -8.628906 159.648438 -4.425781 156.328125 -2.65625 C 153.015625 -0.882812 147.15625 0 138.75 0 L 27.21875 0 C 15.707031 0 10.835938 -6.859375 12.609375 -20.578125 L 77.671875 -481.28125 C 78.109375 -486.15625 79.101562 -489.253906 80.65625 -490.578125 C 82.207031 -491.910156 84.972656 -492.578125 88.953125 -492.578125 L 310.671875 -492.578125 C 369.535156 -492.578125 415.234375 -481.398438 447.765625 -459.046875 C 480.296875 -436.703125 496.5625 -405.613281 496.5625 -365.78125 C 496.5625 -333.46875 487.15625 -303.59375 468.34375 -276.15625 C 449.53125 -248.71875 425.078125 -229.023438 394.984375 -217.078125 C 389.234375 -214.859375 385.800781 -212.863281 384.6875 -211.09375 C 383.582031 -209.332031 383.472656 -206.898438 384.359375 -203.796875 Z M 276.828125 -294.75 C 294.972656 -294.75 310.128906 -300.941406 322.296875 -313.328125 C 334.460938 -325.722656 340.546875 -340.109375 340.546875 -356.484375 C 340.546875 -368.878906 336.007812 -378.285156 326.9375 -384.703125 C 317.863281 -391.117188 306.25 -394.328125 292.09375 -394.328125 L 224.375 -394.328125 C 221.28125 -394.328125 219.066406 -393.441406 217.734375 -391.671875 C 216.410156 -389.898438 215.304688 -386.359375 214.421875 -381.046875 L 203.140625 -304.703125 L 203.140625 -301.390625 C 203.140625 -298.734375 203.691406 -296.960938 204.796875 -296.078125 C 205.898438 -295.191406 207.78125 -294.75 210.4375 -294.75 Z M 276.828125 -294.75 "/></g></g></g><g fill="#22e18a" fill-opacity="1"><g transform="translate(573.546878, 1283.495219)"><g><path d="M 77.671875 -481.28125 C 78.109375 -486.15625 79.101562 -489.253906 80.65625 -490.578125 C 82.207031 -491.910156 84.972656 -492.578125 88.953125 -492.578125 L 450.09375 -492.578125 C 456.726562 -492.578125 460.046875 -488.59375 460.046875 -480.625 C 460.046875 -477.96875 459.820312 -475.972656 459.375 -474.640625 L 448.09375 -397.640625 C 447.207031 -392.328125 445.65625 -388.675781 443.4375 -386.6875 C 441.226562 -384.695312 437.25 -383.703125 431.5 -383.703125 L 225.703125 -383.703125 C 221.722656 -383.703125 218.734375 -382.925781 216.734375 -381.375 C 214.742188 -379.832031 213.53125 -376.625 213.09375 -371.75 L 204.46875 -310.671875 L 203.796875 -306.03125 C 203.796875 -303.820312 204.347656 -302.382812 205.453125 -301.71875 C 206.566406 -301.050781 208.671875 -300.71875 211.765625 -300.71875 L 337.234375 -300.71875 C 341.660156 -300.71875 344.535156 -299.832031 345.859375 -298.0625 C 347.191406 -296.289062 347.414062 -293.414062 346.53125 -289.4375 L 334.578125 -202.46875 C 334.128906 -198.925781 333.242188 -196.601562 331.921875 -195.5 C 330.597656 -194.394531 327.941406 -193.84375 323.953125 -193.84375 L 195.828125 -193.84375 C 192.734375 -193.84375 190.519531 -193.066406 189.1875 -191.515625 C 187.863281 -189.972656 186.757812 -187.207031 185.875 -183.21875 L 176.578125 -117.5 L 176.578125 -114.1875 C 176.578125 -110.644531 178.128906 -108.875 181.234375 -108.875 L 402.296875 -108.875 C 406.710938 -108.875 409.582031 -107.988281 410.90625 -106.21875 C 412.238281 -104.445312 412.460938 -101.125 411.578125 -96.25 L 400.296875 -10.625 C 399.410156 -6.632812 398.082031 -3.863281 396.3125 -2.3125 C 394.539062 -0.769531 391 0 385.6875 0 L 28.546875 0 C 22.796875 0 18.59375 -1.210938 15.9375 -3.640625 C 13.28125 -6.078125 11.953125 -9.734375 11.953125 -14.609375 L 12.609375 -20.578125 Z M 77.671875 -481.28125 "/></g></g></g><g fill="#22e18a" fill-opacity="1"><g transform="translate(1005.661347, 1283.495219)"><g><path d="M 505.84375 -492.578125 C 512.039062 -492.578125 514.695312 -489.035156 513.8125 -481.953125 L 446.765625 -7.96875 C 446.328125 -4.863281 445.109375 -2.757812 443.109375 -1.65625 C 441.117188 -0.550781 437.910156 0 433.484375 0 L 342.546875 0 C 339.441406 0 336.785156 -0.992188 334.578125 -2.984375 C 332.367188 -4.972656 329.710938 -8.40625 326.609375 -13.28125 L 177.25 -260.890625 C 175.914062 -263.097656 174.585938 -264.203125 173.265625 -264.203125 C 170.609375 -264.203125 169.054688 -261.328125 168.609375 -255.578125 L 134.09375 -12.609375 C 133.65625 -7.296875 132.4375 -3.863281 130.4375 -2.3125 C 128.445312 -0.769531 124.359375 0 118.171875 0 L 22.578125 0 C 14.160156 0 10.617188 -5.753906 11.953125 -17.265625 L 77.671875 -481.28125 C 78.109375 -486.15625 79.210938 -489.253906 80.984375 -490.578125 C 82.753906 -491.910156 86.078125 -492.578125 90.953125 -492.578125 L 199.15625 -492.578125 C 204.019531 -492.578125 207.890625 -491.359375 210.765625 -488.921875 C 213.640625 -486.484375 216.628906 -482.609375 219.734375 -477.296875 L 349.1875 -256.90625 C 351.394531 -253.363281 353.601562 -251.59375 355.8125 -251.59375 C 357.144531 -251.59375 358.363281 -252.367188 359.46875 -253.921875 C 360.570312 -255.472656 361.347656 -257.578125 361.796875 -260.234375 L 393 -482.609375 C 393.4375 -487.035156 394.539062 -489.800781 396.3125 -490.90625 C 398.082031 -492.019531 401.398438 -492.578125 406.265625 -492.578125 Z M 505.84375 -492.578125 "/></g></g></g><g fill="#22e18a" fill-opacity="1"><g transform="translate(1497.515626, 1283.495219)"><g><path d="M 31.859375 0 C 25.222656 0 20.242188 -2.210938 16.921875 -6.640625 C 13.609375 -11.066406 12.394531 -16.816406 13.28125 -23.890625 L 77 -479.953125 C 77.445312 -485.265625 78.773438 -488.695312 80.984375 -490.25 C 83.203125 -491.800781 87.410156 -492.578125 93.609375 -492.578125 L 259.5625 -492.578125 C 311.34375 -492.578125 355.597656 -483.722656 392.328125 -466.015625 C 429.066406 -448.316406 456.835938 -423.753906 475.640625 -392.328125 C 494.453125 -360.910156 503.859375 -325.0625 503.859375 -284.78125 C 503.859375 -228.582031 491.460938 -178.90625 466.671875 -135.75 C 441.890625 -92.601562 407.039062 -59.191406 362.125 -35.515625 C 317.207031 -11.835938 265.316406 0 206.453125 0 Z M 224.375 -104.21875 C 264.644531 -104.21875 295.179688 -121.921875 315.984375 -157.328125 C 336.785156 -192.734375 347.1875 -238.097656 347.1875 -293.421875 C 347.1875 -323.953125 339.992188 -347.40625 325.609375 -363.78125 C 311.234375 -380.15625 291.429688 -388.34375 266.203125 -388.34375 L 227.03125 -388.34375 C 219.0625 -388.34375 214.414062 -383.921875 213.09375 -375.078125 L 177.90625 -116.84375 L 177.90625 -112.859375 C 177.90625 -107.097656 180.785156 -104.21875 186.546875 -104.21875 Z M 224.375 -104.21875 "/></g></g></g><g fill="#22e18a" fill-opacity="1"><g transform="translate(1996.00768, 1283.495219)"><g><path d="M -2.65625 0 C -7.96875 0 -10.625 -2.210938 -10.625 -6.640625 C -10.625 -10.179688 -8.1875 -17.257812 -3.3125 -27.875 L 221.71875 -480.625 C 224.375 -485.488281 227.582031 -488.695312 231.34375 -490.25 C 235.101562 -491.800781 240.304688 -492.578125 246.953125 -492.578125 L 377.734375 -492.578125 C 383.035156 -492.578125 386.789062 -490.691406 389 -486.921875 C 391.21875 -483.160156 392.992188 -477.960938 394.328125 -471.328125 L 490.578125 -19.25 C 491.023438 -17.925781 491.25 -15.9375 491.25 -13.28125 C 491.25 -4.425781 487.707031 0 480.625 0 L 350.515625 0 C 344.316406 0 340.109375 -4.867188 337.890625 -14.609375 L 322.625 -89.625 C 322.1875 -91.832031 321.410156 -93.378906 320.296875 -94.265625 C 319.191406 -95.148438 317.09375 -95.59375 314 -95.59375 L 174.59375 -95.59375 C 171.488281 -95.59375 169.050781 -94.925781 167.28125 -93.59375 C 165.519531 -92.269531 163.753906 -90.0625 161.984375 -86.96875 L 122.140625 -6.640625 C 120.816406 -3.984375 119.160156 -2.210938 117.171875 -1.328125 C 115.179688 -0.441406 111.972656 0 107.546875 0 Z M 296.078125 -208.453125 C 303.597656 -208.453125 306.253906 -212.875 304.046875 -221.71875 L 280.140625 -332.578125 C 279.703125 -337.003906 278.15625 -339.21875 275.5 -339.21875 C 273.726562 -339.21875 271.734375 -337.226562 269.515625 -333.25 L 214.421875 -219.0625 C 213.097656 -216.40625 212.4375 -214.195312 212.4375 -212.4375 C 212.4375 -209.78125 215.085938 -208.453125 220.390625 -208.453125 Z M 296.078125 -208.453125 "/></g></g></g><g fill="#22e18a" fill-opacity="1"><g transform="translate(2513.085452, 1283.495219)"><g/></g></g><g fill="#22e18a" fill-opacity="1"><g transform="translate(2632.561784, 1283.495219)"><g><path d="M 77.671875 -481.28125 C 78.109375 -486.15625 79.101562 -489.253906 80.65625 -490.578125 C 82.207031 -491.910156 84.972656 -492.578125 88.953125 -492.578125 L 450.09375 -492.578125 C 456.726562 -492.578125 460.046875 -488.59375 460.046875 -480.625 C 460.046875 -477.96875 459.820312 -475.972656 459.375 -474.640625 L 448.09375 -397.640625 C 447.207031 -392.328125 445.65625 -388.675781 443.4375 -386.6875 C 441.226562 -384.695312 437.25 -383.703125 431.5 -383.703125 L 225.703125 -383.703125 C 221.722656 -383.703125 218.734375 -382.925781 216.734375 -381.375 C 214.742188 -379.832031 213.53125 -376.625 213.09375 -371.75 L 204.46875 -310.671875 L 203.796875 -306.03125 C 203.796875 -303.820312 204.347656 -302.382812 205.453125 -301.71875 C 206.566406 -301.050781 208.671875 -300.71875 211.765625 -300.71875 L 337.234375 -300.71875 C 341.660156 -300.71875 344.535156 -299.832031 345.859375 -298.0625 C 347.191406 -296.289062 347.414062 -293.414062 346.53125 -289.4375 L 334.578125 -202.46875 C 334.128906 -198.925781 333.242188 -196.601562 331.921875 -195.5 C 330.597656 -194.394531 327.941406 -193.84375 323.953125 -193.84375 L 195.828125 -193.84375 C 192.734375 -193.84375 190.519531 -193.066406 189.1875 -191.515625 C 187.863281 -189.972656 186.757812 -187.207031 185.875 -183.21875 L 176.578125 -117.5 L 176.578125 -114.1875 C 176.578125 -110.644531 178.128906 -108.875 181.234375 -108.875 L 402.296875 -108.875 C 406.710938 -108.875 409.582031 -107.988281 410.90625 -106.21875 C 412.238281 -104.445312 412.460938 -101.125 411.578125 -96.25 L 400.296875 -10.625 C 399.410156 -6.632812 398.082031 -3.863281 396.3125 -2.3125 C 394.539062 -0.769531 391 0 385.6875 0 L 28.546875 0 C 22.796875 0 18.59375 -1.210938 15.9375 -3.640625 C 13.28125 -6.078125 11.953125 -9.734375 11.953125 -14.609375 L 12.609375 -20.578125 Z M 77.671875 -481.28125 "/></g></g></g><g fill="#22e18a" fill-opacity="1"><g transform="translate(3064.676305, 1283.495219)"><g><path d="M 455.390625 -30.53125 C 460.703125 -20.800781 463.359375 -13.5 463.359375 -8.625 C 463.359375 -5.53125 461.921875 -3.316406 459.046875 -1.984375 C 456.171875 -0.660156 451.859375 0 446.109375 0 L 326.609375 0 C 319.523438 0 314.101562 -0.882812 310.34375 -2.65625 C 306.582031 -4.425781 303.597656 -7.742188 301.390625 -12.609375 L 244.296875 -141.40625 C 242.078125 -146.269531 240.082031 -148.703125 238.3125 -148.703125 C 236.550781 -148.703125 233.457031 -145.828125 229.03125 -140.078125 L 135.421875 -9.953125 C 132.328125 -5.523438 128.785156 -2.757812 124.796875 -1.65625 C 120.816406 -0.550781 114.84375 0 106.875 0 L 7.96875 0 C -3.09375 0 -8.625 -3.539062 -8.625 -10.625 C -8.625 -16.820312 -4.421875 -25.671875 3.984375 -37.171875 L 163.96875 -239.640625 C 169.71875 -245.835938 172.59375 -251.148438 172.59375 -255.578125 C 172.59375 -258.679688 172.148438 -261.335938 171.265625 -263.546875 L 64.390625 -475.96875 C 63.066406 -478.625 62.40625 -481.28125 62.40625 -483.9375 C 62.40625 -489.695312 66.609375 -492.578125 75.015625 -492.578125 L 200.484375 -492.578125 C 208.003906 -492.578125 213.3125 -491.691406 216.40625 -489.921875 C 219.507812 -488.148438 222.164062 -484.382812 224.375 -478.625 L 270.84375 -371.09375 C 272.175781 -367.550781 273.945312 -365.78125 276.15625 -365.78125 C 278.375 -365.78125 280.8125 -367.550781 283.46875 -371.09375 L 362.453125 -481.953125 C 365.554688 -486.378906 368.765625 -489.253906 372.078125 -490.578125 C 375.398438 -491.910156 380.820312 -492.578125 388.34375 -492.578125 L 497.21875 -492.578125 C 504.300781 -492.578125 507.84375 -489.695312 507.84375 -483.9375 C 507.84375 -479.070312 505.847656 -473.539062 501.859375 -467.34375 L 347.859375 -274.828125 C 342.097656 -267.742188 339.21875 -262.4375 339.21875 -258.90625 C 339.21875 -258.019531 340.101562 -255.363281 341.875 -250.9375 Z M 455.390625 -30.53125 "/></g></g></g><g fill="#22e18a" fill-opacity="1"><g transform="translate(3553.211743, 1283.495219)"><g><path d="M 195.828125 -176.578125 C 191.410156 -176.578125 188.425781 -175.691406 186.875 -173.921875 C 185.320312 -172.148438 184.328125 -169.273438 183.890625 -165.296875 L 162.640625 -15.265625 C 161.753906 -8.628906 159.984375 -4.425781 157.328125 -2.65625 C 154.671875 -0.882812 149.363281 0 141.40625 0 L 23.890625 0 C 19.472656 0 16.378906 -0.882812 14.609375 -2.65625 C 12.835938 -4.425781 11.953125 -7.523438 11.953125 -11.953125 C 11.953125 -15.492188 12.171875 -18.367188 12.609375 -20.578125 L 77.671875 -481.28125 C 78.109375 -486.15625 79.101562 -489.253906 80.65625 -490.578125 C 82.207031 -491.910156 84.972656 -492.578125 88.953125 -492.578125 L 308.6875 -492.578125 C 342.757812 -492.578125 373.515625 -487.15625 400.953125 -476.3125 C 428.398438 -465.46875 450.085938 -449.3125 466.015625 -427.84375 C 481.953125 -406.382812 489.921875 -380.382812 489.921875 -349.84375 C 489.921875 -314.4375 481.066406 -283.675781 463.359375 -257.5625 C 445.660156 -231.457031 421.429688 -211.429688 390.671875 -197.484375 C 359.910156 -183.546875 325.28125 -176.578125 286.78125 -176.578125 Z M 336.5625 -349.1875 C 336.5625 -361.132812 332.359375 -370.316406 323.953125 -376.734375 C 315.546875 -383.148438 304.257812 -386.359375 290.09375 -386.359375 L 228.359375 -386.359375 C 223.046875 -386.359375 219.28125 -385.25 217.0625 -383.03125 C 214.851562 -380.820312 213.3125 -377.0625 212.4375 -371.75 L 201.8125 -293.421875 L 201.140625 -289.4375 C 201.140625 -286.78125 201.800781 -285.007812 203.125 -284.125 C 204.457031 -283.238281 206.453125 -282.796875 209.109375 -282.796875 L 274.171875 -282.796875 C 285.671875 -282.796875 296.175781 -286.003906 305.6875 -292.421875 C 315.207031 -298.835938 322.734375 -307.242188 328.265625 -317.640625 C 333.796875 -328.046875 336.5625 -338.5625 336.5625 -349.1875 Z M 336.5625 -349.1875 "/></g></g></g><g fill="#22e18a" fill-opacity="1"><g transform="translate(4025.152896, 1283.495219)"><g><path d="M 442.78125 -17.921875 C 443.664062 -15.710938 444.109375 -13.054688 444.109375 -9.953125 C 444.109375 -3.316406 439.90625 0 431.5 0 L 302.71875 0 C 297.84375 0 294.078125 -1.210938 291.421875 -3.640625 C 288.765625 -6.078125 286.773438 -10.617188 285.453125 -17.265625 L 246.953125 -188.53125 C 246.066406 -191.1875 245.066406 -193.066406 243.953125 -194.171875 C 242.847656 -195.273438 240.523438 -195.828125 236.984375 -195.828125 L 197.15625 -195.828125 C 193.613281 -195.828125 191.179688 -195.160156 189.859375 -193.828125 C 188.535156 -192.503906 187.648438 -190.519531 187.203125 -187.875 L 162.640625 -15.265625 C 161.753906 -8.628906 159.648438 -4.425781 156.328125 -2.65625 C 153.015625 -0.882812 147.15625 0 138.75 0 L 27.21875 0 C 15.707031 0 10.835938 -6.859375 12.609375 -20.578125 L 77.671875 -481.28125 C 78.109375 -486.15625 79.101562 -489.253906 80.65625 -490.578125 C 82.207031 -491.910156 84.972656 -492.578125 88.953125 -492.578125 L 310.671875 -492.578125 C 369.535156 -492.578125 415.234375 -481.398438 447.765625 -459.046875 C 480.296875 -436.703125 496.5625 -405.613281 496.5625 -365.78125 C 496.5625 -333.46875 487.15625 -303.59375 468.34375 -276.15625 C 449.53125 -248.71875 425.078125 -229.023438 394.984375 -217.078125 C 389.234375 -214.859375 385.800781 -212.863281 384.6875 -211.09375 C 383.582031 -209.332031 383.472656 -206.898438 384.359375 -203.796875 Z M 276.828125 -294.75 C 294.972656 -294.75 310.128906 -300.941406 322.296875 -313.328125 C 334.460938 -325.722656 340.546875 -340.109375 340.546875 -356.484375 C 340.546875 -368.878906 336.007812 -378.285156 326.9375 -384.703125 C 317.863281 -391.117188 306.25 -394.328125 292.09375 -394.328125 L 224.375 -394.328125 C 221.28125 -394.328125 219.066406 -393.441406 217.734375 -391.671875 C 216.410156 -389.898438 215.304688 -386.359375 214.421875 -381.046875 L 203.140625 -304.703125 L 203.140625 -301.390625 C 203.140625 -298.734375 203.691406 -296.960938 204.796875 -296.078125 C 205.898438 -295.191406 207.78125 -294.75 210.4375 -294.75 Z M 276.828125 -294.75 "/></g></g></g><g fill="#22e18a" fill-opacity="1"><g transform="translate(4502.404036, 1283.495219)"><g><path d="M 77.671875 -481.28125 C 78.109375 -486.15625 79.101562 -489.253906 80.65625 -490.578125 C 82.207031 -491.910156 84.972656 -492.578125 88.953125 -492.578125 L 450.09375 -492.578125 C 456.726562 -492.578125 460.046875 -488.59375 460.046875 -480.625 C 460.046875 -477.96875 459.820312 -475.972656 459.375 -474.640625 L 448.09375 -397.640625 C 447.207031 -392.328125 445.65625 -388.675781 443.4375 -386.6875 C 441.226562 -384.695312 437.25 -383.703125 431.5 -383.703125 L 225.703125 -383.703125 C 221.722656 -383.703125 218.734375 -382.925781 216.734375 -381.375 C 214.742188 -379.832031 213.53125 -376.625 213.09375 -371.75 L 204.46875 -310.671875 L 203.796875 -306.03125 C 203.796875 -303.820312 204.347656 -302.382812 205.453125 -301.71875 C 206.566406 -301.050781 208.671875 -300.71875 211.765625 -300.71875 L 337.234375 -300.71875 C 341.660156 -300.71875 344.535156 -299.832031 345.859375 -298.0625 C 347.191406 -296.289062 347.414062 -293.414062 346.53125 -289.4375 L 334.578125 -202.46875 C 334.128906 -198.925781 333.242188 -196.601562 331.921875 -195.5 C 330.597656 -194.394531 327.941406 -193.84375 323.953125 -193.84375 L 195.828125 -193.84375 C 192.734375 -193.84375 190.519531 -193.066406 189.1875 -191.515625 C 187.863281 -189.972656 186.757812 -187.207031 185.875 -183.21875 L 176.578125 -117.5 L 176.578125 -114.1875 C 176.578125 -110.644531 178.128906 -108.875 181.234375 -108.875 L 402.296875 -108.875 C 406.710938 -108.875 409.582031 -107.988281 410.90625 -106.21875 C 412.238281 -104.445312 412.460938 -101.125 411.578125 -96.25 L 400.296875 -10.625 C 399.410156 -6.632812 398.082031 -3.863281 396.3125 -2.3125 C 394.539062 -0.769531 391 0 385.6875 0 L 28.546875 0 C 22.796875 0 18.59375 -1.210938 15.9375 -3.640625 C 13.28125 -6.078125 11.953125 -9.734375 11.953125 -14.609375 L 12.609375 -20.578125 Z M 77.671875 -481.28125 "/></g></g></g><g fill="#22e18a" fill-opacity="1"><g transform="translate(4934.359109, 1283.495219)"><g/></g></g><g fill="#22e18a" fill-opacity="1"><g transform="translate(5053.835416, 1283.495219)"><g/></g></g><g fill="#22e18a" fill-opacity="1"><g transform="translate(5173.311724, 1283.495219)"><g/></g></g><g fill="#22e18a" fill-opacity="1"><g transform="translate(5292.788031, 1283.495219)"><g/></g></g><g fill="#22e18a" fill-opacity="1"><g transform="translate(5412.264338, 1283.495219)"><g/></g></g><g fill="#22e18a" fill-opacity="1"><g transform="translate(5531.740671, 1283.495219)"><g/></g></g><g fill="#22e18a" fill-opacity="1"><g transform="translate(5651.217003, 1283.495219)"><g/></g></g><g fill="#22e18a" fill-opacity="1"><g transform="translate(5770.693335, 1283.495219)"><g/></g></g><g fill="#ffffff" fill-opacity="1"><g transform="translate(4987.603461, 1291.297002)"><g><path d="M 442.640625 -152.09375 C 436.734375 -111.175781 418.207031 -76.847656 387.0625 -49.109375 C 355.914062 -21.367188 316.46875 -4.546875 268.71875 1.359375 C 260.988281 1.816406 255.644531 3.410156 252.6875 6.140625 C 249.738281 8.867188 247.8125 13.1875 246.90625 19.09375 L 244.859375 34.109375 C 243.941406 40.921875 242.117188 45.238281 239.390625 47.0625 C 236.671875 48.882812 231.445312 49.796875 223.71875 49.796875 L 178.015625 49.796875 C 171.648438 49.796875 166.875 47.75 163.6875 43.65625 C 160.507812 39.5625 159.375 34.332031 160.28125 27.96875 L 163.015625 9.546875 L 163.6875 2.734375 C 163.6875 1.816406 163.34375 1.242188 162.65625 1.015625 C 161.976562 0.796875 161.1875 0.6875 160.28125 0.6875 C 159.375 0.6875 158.460938 0.6875 157.546875 0.6875 C 126.628906 -1.59375 99.6875 -7.617188 76.71875 -17.390625 C 53.757812 -27.171875 32.734375 -40.695312 13.640625 -57.96875 C 2.722656 -62.96875 -2.734375 -68.65625 -2.734375 -75.03125 C -2.734375 -77.757812 -1.59375 -80.257812 0.6875 -82.53125 L 62.0625 -141.859375 C 65.25 -145.046875 68.429688 -146.640625 71.609375 -146.640625 C 76.160156 -146.640625 80.253906 -142.773438 83.890625 -135.046875 C 108.441406 -114.128906 134.132812 -100.035156 160.96875 -92.765625 C 166.414062 -92.304688 170.84375 -93.328125 174.25 -95.828125 C 177.664062 -98.328125 179.832031 -101.625 180.75 -105.71875 L 193.015625 -189.609375 C 193.015625 -190.972656 193.128906 -192.445312 193.359375 -194.03125 C 193.585938 -195.625 193.585938 -196.757812 193.359375 -197.4375 C 193.128906 -198.125 192.332031 -198.925781 190.96875 -199.84375 C 141.863281 -205.75 105.941406 -220.640625 83.203125 -244.515625 C 60.472656 -268.390625 49.109375 -297.601562 49.109375 -332.15625 C 49.109375 -341.25 49.789062 -350.113281 51.15625 -358.75 C 56.15625 -393.3125 72.519531 -423.097656 100.25 -448.109375 C 127.988281 -473.117188 166.1875 -491.078125 214.84375 -501.984375 C 219.394531 -502.441406 224.507812 -504.375 230.1875 -507.78125 C 235.875 -511.195312 238.945312 -514.945312 239.40625 -519.03125 L 242.125 -540.1875 C 242.582031 -543.363281 243.378906 -545.289062 244.515625 -545.96875 C 245.648438 -546.65625 247.582031 -547 250.3125 -547 L 308.28125 -547 C 313.28125 -547 317.257812 -545.179688 320.21875 -541.546875 C 323.175781 -537.910156 324.425781 -533.363281 323.96875 -527.90625 L 320.5625 -504.71875 L 320.5625 -503.34375 C 320.5625 -501.976562 321.242188 -500.957031 322.609375 -500.28125 C 323.972656 -499.601562 324.882812 -499.035156 325.34375 -498.578125 C 370.8125 -488.578125 406.273438 -472.890625 431.734375 -451.515625 C 434.921875 -450.609375 437.535156 -449.128906 439.578125 -447.078125 C 441.617188 -445.035156 442.640625 -442.878906 442.640625 -440.609375 C 442.640625 -438.328125 441.503906 -435.597656 439.234375 -432.421875 L 385.359375 -373.078125 C 382.628906 -370.347656 380.128906 -368.984375 377.859375 -368.984375 C 374.210938 -368.984375 369.890625 -372.847656 364.890625 -380.578125 C 348.523438 -391.035156 333.75 -399.90625 320.5625 -407.1875 L 319.875 -407.1875 C 316.238281 -407.1875 312.828125 -405.707031 309.640625 -402.75 C 306.460938 -399.789062 304.644531 -397.175781 304.1875 -394.90625 L 293.28125 -316.46875 L 292.59375 -313.734375 C 292.59375 -312.828125 293.5 -312.257812 295.3125 -312.03125 C 297.132812 -311.8125 298.273438 -311.703125 298.734375 -311.703125 L 343.0625 -300.78125 C 373.070312 -293.050781 397.398438 -277.59375 416.046875 -254.40625 C 434.691406 -231.21875 444.015625 -203.9375 444.015625 -172.5625 C 444.015625 -168.007812 443.554688 -161.1875 442.640625 -152.09375 Z M 223.03125 -403.765625 C 223.488281 -406.953125 223.601562 -408.660156 223.375 -408.890625 C 223.144531 -409.117188 222.460938 -408.890625 221.328125 -408.203125 C 220.191406 -407.523438 219.394531 -406.957031 218.9375 -406.5 C 200.289062 -403.3125 185.96875 -396.828125 175.96875 -387.046875 C 165.96875 -377.273438 160.96875 -366.253906 160.96875 -353.984375 C 160.96875 -338.523438 171.648438 -328.75 193.015625 -324.65625 C 198.929688 -324.195312 203.820312 -325.898438 207.6875 -329.765625 C 211.550781 -333.628906 213.9375 -338.519531 214.84375 -344.4375 Z M 261.90625 -92.765625 C 261.90625 -92.304688 262.132812 -92.078125 262.59375 -92.078125 C 263.039062 -92.078125 263.71875 -92.53125 264.625 -93.4375 C 265.539062 -94.34375 266.679688 -95.253906 268.046875 -96.171875 C 287.140625 -98.898438 302.253906 -105.265625 313.390625 -115.265625 C 324.535156 -125.265625 330.109375 -136.859375 330.109375 -150.046875 C 330.109375 -168.234375 316.015625 -179.828125 287.828125 -184.828125 C 283.734375 -184.828125 280.4375 -183.578125 277.9375 -181.078125 C 275.4375 -178.578125 273.726562 -175.507812 272.8125 -171.875 L 261.90625 -94.125 Z M 261.90625 -92.765625 "/></g></g></g><g fill="#ffffff" fill-opacity="1"><g transform="translate(5466.323121, 1291.297002)"><g><path d="M 442.640625 -152.09375 C 436.734375 -111.175781 418.207031 -76.847656 387.0625 -49.109375 C 355.914062 -21.367188 316.46875 -4.546875 268.71875 1.359375 C 260.988281 1.816406 255.644531 3.410156 252.6875 6.140625 C 249.738281 8.867188 247.8125 13.1875 246.90625 19.09375 L 244.859375 34.109375 C 243.941406 40.921875 242.117188 45.238281 239.390625 47.0625 C 236.671875 48.882812 231.445312 49.796875 223.71875 49.796875 L 178.015625 49.796875 C 171.648438 49.796875 166.875 47.75 163.6875 43.65625 C 160.507812 39.5625 159.375 34.332031 160.28125 27.96875 L 163.015625 9.546875 L 163.6875 2.734375 C 163.6875 1.816406 163.34375 1.242188 162.65625 1.015625 C 161.976562 0.796875 161.1875 0.6875 160.28125 0.6875 C 159.375 0.6875 158.460938 0.6875 157.546875 0.6875 C 126.628906 -1.59375 99.6875 -7.617188 76.71875 -17.390625 C 53.757812 -27.171875 32.734375 -40.695312 13.640625 -57.96875 C 2.722656 -62.96875 -2.734375 -68.65625 -2.734375 -75.03125 C -2.734375 -77.757812 -1.59375 -80.257812 0.6875 -82.53125 L 62.0625 -141.859375 C 65.25 -145.046875 68.429688 -146.640625 71.609375 -146.640625 C 76.160156 -146.640625 80.253906 -142.773438 83.890625 -135.046875 C 108.441406 -114.128906 134.132812 -100.035156 160.96875 -92.765625 C 166.414062 -92.304688 170.84375 -93.328125 174.25 -95.828125 C 177.664062 -98.328125 179.832031 -101.625 180.75 -105.71875 L 193.015625 -189.609375 C 193.015625 -190.972656 193.128906 -192.445312 193.359375 -194.03125 C 193.585938 -195.625 193.585938 -196.757812 193.359375 -197.4375 C 193.128906 -198.125 192.332031 -198.925781 190.96875 -199.84375 C 141.863281 -205.75 105.941406 -220.640625 83.203125 -244.515625 C 60.472656 -268.390625 49.109375 -297.601562 49.109375 -332.15625 C 49.109375 -341.25 49.789062 -350.113281 51.15625 -358.75 C 56.15625 -393.3125 72.519531 -423.097656 100.25 -448.109375 C 127.988281 -473.117188 166.1875 -491.078125 214.84375 -501.984375 C 219.394531 -502.441406 224.507812 -504.375 230.1875 -507.78125 C 235.875 -511.195312 238.945312 -514.945312 239.40625 -519.03125 L 242.125 -540.1875 C 242.582031 -543.363281 243.378906 -545.289062 244.515625 -545.96875 C 245.648438 -546.65625 247.582031 -547 250.3125 -547 L 308.28125 -547 C 313.28125 -547 317.257812 -545.179688 320.21875 -541.546875 C 323.175781 -537.910156 324.425781 -533.363281 323.96875 -527.90625 L 320.5625 -504.71875 L 320.5625 -503.34375 C 320.5625 -501.976562 321.242188 -500.957031 322.609375 -500.28125 C 323.972656 -499.601562 324.882812 -499.035156 325.34375 -498.578125 C 370.8125 -488.578125 406.273438 -472.890625 431.734375 -451.515625 C 434.921875 -450.609375 437.535156 -449.128906 439.578125 -447.078125 C 441.617188 -445.035156 442.640625 -442.878906 442.640625 -440.609375 C 442.640625 -438.328125 441.503906 -435.597656 439.234375 -432.421875 L 385.359375 -373.078125 C 382.628906 -370.347656 380.128906 -368.984375 377.859375 -368.984375 C 374.210938 -368.984375 369.890625 -372.847656 364.890625 -380.578125 C 348.523438 -391.035156 333.75 -399.90625 320.5625 -407.1875 L 319.875 -407.1875 C 316.238281 -407.1875 312.828125 -405.707031 309.640625 -402.75 C 306.460938 -399.789062 304.644531 -397.175781 304.1875 -394.90625 L 293.28125 -316.46875 L 292.59375 -313.734375 C 292.59375 -312.828125 293.5 -312.257812 295.3125 -312.03125 C 297.132812 -311.8125 298.273438 -311.703125 298.734375 -311.703125 L 343.0625 -300.78125 C 373.070312 -293.050781 397.398438 -277.59375 416.046875 -254.40625 C 434.691406 -231.21875 444.015625 -203.9375 444.015625 -172.5625 C 444.015625 -168.007812 443.554688 -161.1875 442.640625 -152.09375 Z M 223.03125 -403.765625 C 223.488281 -406.953125 223.601562 -408.660156 223.375 -408.890625 C 223.144531 -409.117188 222.460938 -408.890625 221.328125 -408.203125 C 220.191406 -407.523438 219.394531 -406.957031 218.9375 -406.5 C 200.289062 -403.3125 185.96875 -396.828125 175.96875 -387.046875 C 165.96875 -377.273438 160.96875 -366.253906 160.96875 -353.984375 C 160.96875 -338.523438 171.648438 -328.75 193.015625 -324.65625 C 198.929688 -324.195312 203.820312 -325.898438 207.6875 -329.765625 C 211.550781 -333.628906 213.9375 -338.519531 214.84375 -344.4375 Z M 261.90625 -92.765625 C 261.90625 -92.304688 262.132812 -92.078125 262.59375 -92.078125 C 263.039062 -92.078125 263.71875 -92.53125 264.625 -93.4375 C 265.539062 -94.34375 266.679688 -95.253906 268.046875 -96.171875 C 287.140625 -98.898438 302.253906 -105.265625 313.390625 -115.265625 C 324.535156 -125.265625 330.109375 -136.859375 330.109375 -150.046875 C 330.109375 -168.234375 316.015625 -179.828125 287.828125 -184.828125 C 283.734375 -184.828125 280.4375 -183.578125 277.9375 -181.078125 C 275.4375 -178.578125 273.726562 -175.507812 272.8125 -171.875 L 261.90625 -94.125 Z M 261.90625 -92.765625 "/></g></g></g></svg>